<?xml version="1.0" encoding="UTF-8"?>
<svg width="252px" height="41px" viewBox="0 0 252 41" version="1.1" xmlns="http://www.w3.org/2000/svg" xmlns:xlink="http://www.w3.org/1999/xlink">
    <!-- Generator: Sketch 47.1 (45422) - http://www.bohemiancoding.com/sketch -->
    <title>Headout New Logo_Horizontal</title>
    <desc>Created with Sketch.</desc>
    <defs>
        <linearGradient x1="100.539435%" y1="-0.505184309%" x2="-6.7797464%" y2="100%" id="linearGradient-1">
            <stop stop-color="#EC1943" offset="0%"></stop>
            <stop stop-color="#EC1943" offset="0%"></stop>
            <stop stop-color="#FF5888" offset="100%"></stop>
        </linearGradient>
    </defs>
    <g id="Page-1" stroke="none" stroke-width="1" fill="none" fill-rule="evenodd">
        <g id="Headout-New-Logo_Horizontal" fill-rule="nonzero">
            <g id="Group-2-Copy-5" transform="translate(1.000000, 1.000000)">
                <path d="M241.221069,1.85714286 C241.221069,0.825396825 242.019154,0 243.01676,0 C244.014366,0 244.81245,0.825396825 244.81245,1.85714286 L244.81245,8.66666667 L248.403831,8.66666667 C249.401437,8.66666667 250,9.49206349 250,10.3174603 C250,11.3492063 249.201915,11.968254 248.403831,11.968254 L244.81245,11.968254 L244.81245,31.7777778 C244.81245,34.2539683 246.209098,35.6984127 248.004789,35.6984127 C249.002394,35.6984127 249.800479,36.5238095 249.800479,37.3492063 C249.800479,38.3809524 249.002394,39 248.004789,39 C243.615323,39 241.221069,35.9047619 241.221069,31.7777778 L241.221069,11.968254 L239.026337,11.968254 C238.028731,11.968254 237.430168,11.1428571 237.430168,10.3174603 C237.430168,9.28571429 238.228252,8.66666667 239.026337,8.66666667 L241.221069,8.66666667 L241.221069,1.85714286 Z" id="XMLID_305_" fill="#595959"></path>
                <path d="M218.467985,14.3265306 L218.467985,28.8520408 C218.467985,32.4336735 219.596046,35.6173469 224.860335,35.6173469 C230.124624,35.6173469 231.252686,32.4336735 231.252686,28.8520408 L231.252686,14.3265306 C231.252686,13.3316327 232.004727,12.5357143 232.944779,12.5357143 C233.88483,12.5357143 234.636872,13.3316327 234.636872,14.3265306 L234.636872,28.8520408 C234.636872,34.2244898 232.944779,39 224.860335,39 C216.775892,39 215.083799,34.2244898 215.083799,28.8520408 L215.083799,14.3265306 C215.083799,13.3316327 215.83584,12.5357143 216.775892,12.5357143 C217.527933,12.5357143 218.467985,13.3316327 218.467985,14.3265306 Z" id="XMLID_307_" fill="#595959"></path>
                <path d="M210.893855,24.968254 C210.893855,34.4603175 206.467191,39 199.022346,39 C191.778714,39 187.150838,34.4603175 187.150838,24.968254 C187.150838,15.4761905 191.778714,11.1428571 199.022346,11.1428571 C206.467191,11.1428571 210.893855,15.4761905 210.893855,24.968254 Z M207.272039,24.968254 C207.272039,17.7460317 204.253859,14.4444444 199.022346,14.4444444 C193.790834,14.4444444 190.772654,17.7460317 190.772654,24.968254 C190.772654,32.3968254 193.790834,35.4920635 199.022346,35.4920635 C204.253859,35.6984127 207.272039,32.3968254 207.272039,24.968254 Z" id="XMLID_309_" fill="#595959"></path>
                <path d="M180.641244,15.4375 L180.641244,1.828125 C180.641244,0.8125 181.467088,0 182.499393,0 C183.531698,0 184.357542,0.8125 184.357542,2.4375 L184.357542,28.234375 C184.357542,35.34375 179.402478,39 172.795725,39 C165.156667,39 160.614525,34.53125 160.614525,24.984375 C160.614525,15.4375 164.950206,11.578125 172.589264,11.578125 C176.512023,11.78125 179.402478,13.609375 180.641244,15.4375 Z M180.641244,20.3125 C180.641244,20.3125 178.370172,15.234375 172.795725,15.234375 C167.427739,15.234375 164.330823,18.078125 164.330823,25.1875 C164.330823,32.5 167.221278,35.953125 172.795725,35.953125 C177.337867,35.953125 180.641244,33.3125 180.641244,27.828125 L180.641244,20.3125 Z" id="XMLID_333_" fill="#595959"></path>
                <path d="M140.278285,17.5396825 C139.651752,18.1587302 139.234063,18.3650794 138.816373,18.3650794 C137.980995,18.3650794 137.145617,17.5396825 137.145617,16.7142857 C137.145617,16.3015873 137.354461,16.0952381 137.354461,15.6825397 C139.025218,13.2063492 142.157886,11.1428571 147.170156,11.1428571 C154.062027,11.1428571 157.821229,15.0634921 157.821229,21.047619 L157.821229,36.9365079 C157.821229,37.968254 156.985851,38.7936508 155.941628,38.7936508 C154.897405,38.7936508 154.062027,37.968254 154.062027,36.9365079 L154.062027,34.8730159 C152.600115,37.5555556 149.258602,39 145.708244,39 C139.442907,39 135.47486,36.1111111 135.47486,30.7460317 C135.47486,25.5873016 139.442907,22.4920635 145.708244,22.4920635 L154.062027,22.4920635 L154.062027,20.8412698 C154.062027,16.9206349 151.347047,14.4444444 147.170156,14.4444444 C144.037488,14.6507937 142.157886,15.4761905 140.278285,17.5396825 Z M154.062027,28.2698413 L154.062027,25.7936508 L145.708244,25.7936508 C141.949042,25.7936508 139.234063,27.4444444 139.234063,30.7460317 C139.234063,33.8412698 141.322508,35.6984127 145.917089,35.6984127 C150.09398,35.6984127 154.062027,33.2222222 154.062027,28.2698413 Z" id="XMLID_319_" fill="#595959"></path>
                <path d="M120.510774,11.1428571 C129.489226,11.1428571 131.284916,18.5714286 131.284916,22.4920635 C131.284916,24.1428571 131.284916,26.2063492 129.090184,26.2063492 L112.729449,26.2063492 C112.729449,31.984127 115.921788,35.6984127 121.109338,35.6984127 C124.301676,35.6984127 126.296887,34.4603175 127.893057,33.2222222 C128.292099,33.015873 128.49162,32.8095238 128.890662,32.8095238 C129.688747,32.8095238 130.486832,33.6349206 130.486832,34.4603175 C130.486832,35.0793651 130.28731,35.4920635 129.888268,35.6984127 C129.090184,36.5238095 126.097366,39 121.109338,39 C113.727055,39 108.938547,34.6666667 108.938547,24.968254 C108.938547,16.0952381 113.128492,11.1428571 120.510774,11.1428571 Z M120.510774,14.4444444 C115.722267,14.4444444 112.92897,17.7460317 112.529928,22.9047619 L127.693536,22.9047619 C127.693536,18.7777778 126.296887,14.4444444 120.510774,14.4444444 Z" id="XMLID_326_" fill="#595959"></path>
                <path d="M106.145251,21.7578947 L106.145251,37.1526316 C106.145251,38.1789474 105.309873,39 104.26565,39 C103.221427,39 102.386049,38.1789474 102.386049,37.1526316 L102.386049,22.3736842 C102.386049,17.8578947 101.132982,14.7789474 95.2853339,14.7789474 C89.437686,14.7789474 87.5580849,18.2684211 87.5580849,22.7842105 L87.5580849,36.9473684 C87.5580849,37.9736842 86.7227066,38.7947368 85.6784838,38.7947368 C84.634261,38.7947368 83.7988827,37.9736842 83.7988827,36.9473684 L83.7988827,1.84736842 C83.7988827,0.821052632 84.634261,0 85.6784838,0 C86.7227066,0 87.5580849,0.821052632 87.5580849,1.84736842 L87.5580849,15.6 C88.6023077,13.3421053 91.5261317,11.4947368 95.2853339,11.4947368 C104.474495,11.4947368 106.145251,16.8315789 106.145251,21.7578947 Z" id="XMLID_329_" fill="#595959"></path>
                <path d="M43.6732559,38.0681563 C39.1323291,38.7296512 39.4756039,38.6441131 37.3423709,38.9320915 C36.3997062,39.0126302 35.07151,39.0760807 33.9016726,38.7881023 C33.007091,38.5721185 32.2501373,38.2121455 31.5619977,37.5641941 C29.7892343,35.9803129 29.2070129,35.2979945 27.9683615,34.1460809 C27.7619196,33.9300971 27.5019736,33.6764857 27.2267177,33.3885073 C27.0890898,33.2445181 27.0723869,33.2083255 26.8826479,33.1725235 C26.6929089,33.1367215 23.3043216,32.7405559 21.5151585,32.4525775 C20.1388791,32.2365937 18.8314138,32.0206099 17.5239484,31.7326315 C17.2486925,31.6606369 17.2486925,31.6606369 17.1798786,31.9486153 C16.9734366,32.8125505 16.7669947,33.6044911 16.4917389,34.3964317 C16.4229249,34.6124155 16.3541109,34.6844101 16.147669,34.7564047 C14.7025757,35.1883723 13.3262964,35.6203399 11.8812031,35.9803129 C10.4361098,36.3402859 9.05983043,36.7002589 7.61473713,36.9162427 C6.99541142,36.9882373 6.37608572,37.1322265 5.75676001,37.0602319 C5.34387621,36.9882373 4.86217844,36.9162427 4.44929464,36.7002589 C3.76115497,36.3402859 3.34827117,35.7643291 3.14182927,34.9723885 C2.8665734,34.0364587 2.93538736,33.1005289 3.00420133,32.1645991 C3.21064323,30.2207449 3.76115497,28.3488852 4.38048067,26.4770256 C4.41447183,26.4063393 4.38048067,26.4770256 4.44929464,26.3330364 C4.51810861,26.1890472 4.51810861,26.1170526 4.38048067,25.9730634 C4.03641084,25.6130904 3.692341,25.1811228 3.4858991,24.6771606 C3.41708513,24.5331714 3.2794572,24.4611768 3.14182927,24.4611768 C2.59131753,24.3171876 2.10961976,24.245193 1.55910802,24.1012038 C1.35266612,24.0292092 1.21503819,23.9572146 1.07741025,23.7412308 C0.802154385,23.2372686 0.802154385,22.7333064 0.870968352,22.1573496 C0.939782319,21.9413658 1.00859629,21.7973766 1.21503819,21.6533874 C1.62792199,21.4374036 2.10961976,21.1494252 2.52250356,20.9334414 C2.6601315,20.8614468 2.79775943,20.7174576 2.79775943,20.5734684 C2.93538736,19.9975116 3.0730153,19.4935494 3.34827117,18.9895872 C3.41708513,18.7736034 3.41708513,18.7016088 3.2794572,18.485625 C2.31606166,17.045733 1.42148009,15.605841 0.802154385,13.9499651 C0.526898516,13.2300191 0.251642648,12.5100731 0.114014714,11.7901271 C-0.0236132204,11.2141703 -0.0236132204,10.6382135 0.0452007467,10.0622567 C0.182828681,9.41430531 0.458084549,8.98233771 0.939782319,8.55037011 C1.49029406,8.1184025 2.3517916,7.8473703 2.8665734,7.7584295 C3.91770133,7.60290198 4.72455051,7.5424457 5.61913208,7.4704511 C6.51371365,7.3984565 7.79661016,7.3264619 8.23406283,7.3264619 C8.6715155,7.3264619 10.7113656,7.3264619 11.8812031,7.3264619 C12.156459,7.3264619 12.3629009,7.3264619 12.6381567,7.3264619 C12.7757847,7.3264619 12.9134126,7.3984565 12.9822266,7.5424457 C13.3951104,8.1903971 13.7391802,8.83834851 14.152064,9.48629991 C14.2954019,9.69388965 14.220878,9.84627292 14.6337618,9.63028911 C16.9734366,8.40638091 19.3819255,7.2544673 21.7904143,6.24654289 C24.611787,5.02263468 27.5019736,4.01471028 30.3921602,3.00678587 C32.4565792,2.35883446 34.5209983,1.71088306 36.5854173,1.20692086 C38.7186502,0.702958653 40.9206972,0.342985651 43.0539302,0.127001849 C46.2193727,-0.160976552 49.3848151,0.055007249 52.5502576,0.630964053 C54.2706068,0.918942455 55.990956,1.35091006 57.6424912,1.85487226 C60.6014918,2.79080207 63.4228644,4.08670488 66.0377952,5.88656989 C67.7581444,7.0384835 69.2032377,8.47837551 70.2354472,10.3502351 C70.510703,10.9261919 70.7171449,11.5021487 70.9235868,12.0781055 C71.4052846,13.5899921 71.2676567,15.1018788 70.8547729,16.6137654 C70.510703,17.9096682 69.8913773,19.0615818 69.1344237,20.1415008 C67.7581444,22.1573496 66.1066091,23.8132254 64.317446,25.325112 C63.0099806,26.405031 61.7025153,27.4129554 60.2574219,28.204896 C59.6380962,28.564869 58.9499566,28.924842 58.3306309,29.2128204 C58.124189,29.284815 57.986561,29.4288042 57.9177471,29.5727934 C56.9543515,31.0846801 55.990956,32.5245721 55.0963744,34.0364587 C54.6834906,34.7564047 54.0641649,35.2603669 53.3760252,35.6203399 C52.2750018,36.1962967 48.2141826,37.4066614 43.6732559,38.0681563 Z M36.0796083,36.6264782 C36.6377928,36.6264782 37.0902908,36.1758629 37.0902908,35.6200008 C37.0902908,35.0641388 36.6377928,34.6135235 36.0796083,34.6135235 C35.5214237,34.6135235 35.0689258,35.0641388 35.0689258,35.6200008 C35.0689258,36.1758629 35.5214237,36.6264782 36.0796083,36.6264782 Z M43.1508694,35.5111603 C43.7090539,35.5111603 44.1615518,35.0605451 44.1615518,34.504683 C44.1615518,33.9488209 43.7090539,33.4982057 43.1508694,33.4982057 C42.5926848,33.4982057 42.1401869,33.9488209 42.1401869,34.504683 C42.1401869,35.0605451 42.5926848,35.5111603 43.1508694,35.5111603 Z M50.3401696,34.3772247 C50.8983541,34.3772247 51.3508521,33.9266095 51.3508521,33.3707474 C51.3508521,32.8148853 50.8983541,32.3642701 50.3401696,32.3642701 C49.7819851,32.3642701 49.3294871,32.8148853 49.3294871,33.3707474 C49.3294871,33.9266095 49.7819851,34.3772247 50.3401696,34.3772247 Z M68.4976141,17.3512328 C68.5542467,17.2228686 68.7634983,16.8014926 68.6935652,16.7305967 C68.6236321,16.6597009 68.4250372,16.8993426 68.2590084,16.9828392 C63.8111615,19.6202581 59.0313857,21.5448611 54.0524526,22.9704929 C52.5919655,23.3981825 51.1978642,23.7545904 49.7373772,24.1109984 C48.0777328,24.4674063 46.3517027,24.8238143 44.6920583,25.1089407 C42.1693988,25.6079118 39.5803536,25.8930382 36.9913084,26.1781645 C35.6635929,26.3207277 34.4022632,26.4632909 33.0745477,26.5345725 C31.2821317,26.6058541 29.5561016,26.6771357 27.7636857,26.7484173 C26.3031986,26.8196989 24.8427116,26.8196989 23.3822245,26.8196989 C21.5234228,26.8196989 19.7310069,26.7484173 17.8722052,26.6771357 C15.4823173,26.6058541 13.0260436,26.3920093 10.6361557,26.1781645 C9.70675485,26.1068829 8.84373977,25.9643198 7.91433892,25.8930382 C7.98072469,25.9643198 9.44121175,26.6058541 10.1050695,26.8196989 C14.7520737,28.6017387 19.5318496,29.7422441 24.3780111,30.45506 C27.1662137,30.8827496 29.8880305,31.0965944 32.676233,31.167876 C34.2031058,31.2391575 35.7299787,31.2391575 37.2568515,31.167876 C38.6509528,31.0965944 40.1114398,31.0253128 41.5055411,30.8827496 C43.8290432,30.5976232 46.0861596,30.3124969 48.3432759,29.8135257 C50.4012349,29.3858362 52.5255797,28.8155834 54.517153,28.1027675 C56.8406551,27.2473884 59.0977715,26.2494461 61.2221163,24.8950959 C63.2136895,23.6120272 64.9397197,22.1863954 66.4665925,20.4043556 C67.2632218,19.4776949 67.9665279,18.4917383 68.4976141,17.3512328 Z M68.3334514,11.863913 C68.4763196,11.8994594 68.5636287,11.9403251 68.5989541,11.8685474 C68.6417362,11.8239055 68.4610028,11.6118315 68.423703,11.5536265 C68.0551432,10.9717957 67.5618038,10.4257638 67.1054609,9.94290492 C65.8014268,8.57461172 64.2927412,7.51934188 62.6471609,6.69912923 C59.9492378,5.3065056 57.1738901,4.54572167 54.2588854,4.1782445 C50.8820132,3.64440761 47.4940921,3.74356901 44.1020276,4.08010478 C40.7099631,4.41664055 37.3787497,5.07083405 34.1097686,5.96356051 C32.1074497,6.56180106 30.1051307,7.16004161 28.1664252,7.91769032 C23.6211141,9.65877619 19.2680243,11.7989618 15.038018,14.495338 C12.5531147,16.1140907 10.1995817,17.8142853 7.97465653,19.7541714 C7.90603374,19.8079471 7.84803452,19.8836655 7.75783992,19.980036 C7.85894618,19.9218628 7.92354015,19.9096536 8.05103295,19.8503008 C10.9286657,18.5549989 13.85853,17.4032591 16.798395,16.3464901 C18.8034762,15.59 20.8735519,14.9137932 22.8758709,14.3155527 C24.5449304,13.790644 26.1462331,13.3437015 27.8139115,12.8979175 C29.0819547,12.5243068 30.4149925,12.2309795 31.7480303,11.9376522 C33.6134546,11.5744688 35.4802599,11.1321607 37.344303,10.8481021 C39.7421137,10.4150627 42.2049189,10.0623066 44.5985862,9.86664154 C45.861105,9.80952999 47.1913805,9.67445225 48.4538993,9.6173407 C50.2488044,9.4903731 52.0409474,9.52165507 53.899466,9.55409563 C55.6238521,9.6633438 57.4146139,9.77375056 59.1376189,9.96212351 C62.2517506,10.3330765 65.2953633,10.9402452 68.3334514,11.863913 Z" id="Combined-Shape" fill="url(#linearGradient-1)"></path>
            </g>
        </g>
    </g>
</svg>