<svg width="160" height="43" viewBox="0 0 160 43" xmlns="http://www.w3.org/2000/svg"><title>Slice 1</title><g fill="#430098" fill-rule="evenodd"><path d="M9.562 36.012v-9.084l4.543 4.542-4.543 4.542M20.642 14.002h4.398c2.31-3.074 3.25-5.806 3.614-7h-4.388c-.658 1.707-1.85 4.44-3.624 7z"/><path d="M28.517 36.03h-4.1v-12.4c0-1.118-.33-1.52-.66-1.746-2.034-1.384-7.873-.057-11.386 1.328l-2.788 1.16.01-17.37h4.07v11.456c.852-.24 1.756-.487 2.748-.698 4.345-.927 7.56-.68 9.64.735 1.145.777 2.467 2.3 2.467 5.133V36.03zM59.207 36.73V21.35c0-1.086-.795-1.554-1.732-1.554-1.88 0-4.225.468-6.355 1.407V36.73h-4.332V8.17h4.332v9.423c2.058-.758 4.513-1.407 6.968-1.407 3.935 0 5.415 2.42 5.415 5.74v14.803h-4.296zm12.382-9.316c.143 5.163 1.155 6.174 4.33 6.174 2.492 0 5.308-.83 7.475-1.66l.722 3.247c-2.31 1.05-5.127 2.06-8.484 2.06-7.222 0-8.34-3.97-8.34-10.29 0-3.466.252-6.607 1.082-9.495 2.166-.83 5.055-1.264 8.7-1.264 5.923 0 7.728 3.286 7.728 9.026v2.202H71.59zm5.485-7.618c-1.298 0-3.356.036-5.053.36-.18.867-.397 2.058-.47 4.26h9.026c0-2.996-.54-4.62-3.503-4.62zm15.85 1.407V36.73H88.59V19.253c3.648-1.985 7.51-2.6 10.04-2.78v3.61c-1.77.145-4.01.362-5.706 1.12zm17.147 16.03c-6.463 0-9.387-3.176-9.387-10.433 0-7.69 3.863-10.614 9.387-10.614 6.462 0 9.387 3.177 9.387 10.434 0 7.69-3.865 10.614-9.388 10.614zm0-17.437c-3.32 0-5.162 1.913-5.162 7.004 0 5.56 1.552 6.788 5.162 6.788 3.32 0 5.163-1.878 5.163-6.968 0-5.56-1.553-6.824-5.163-6.824zm30.29 16.933h-5.092c-1.19-3.178-2.852-6.428-5.416-9.244h-2.274v9.243h-4.332V8.17h4.332v16.39h2.022c2.202-2.274 3.9-5.088 5.09-7.87h4.874c-1.66 3.36-3.79 6.32-6.173 8.738 2.852 3.61 5.09 7.438 6.968 11.3zm8.12.504c-3.935 0-5.415-2.418-5.415-5.74V16.69h4.296v15.345c0 1.084.793 1.553 1.732 1.553 1.878 0 4.44-.47 6.572-1.408V16.69H160v17.403c-5.128 2.816-9.063 3.14-11.518 3.14z"/><path d="M33.995 2.05c.845 0 1.523.737 1.523 1.582V38.98c0 .844-.678 1.49-1.523 1.49H3.607c-.846 0-1.558-.646-1.558-1.49V3.63c0-.845.71-1.583 1.557-1.583h30.389zm0-2.05H3.607C1.63 0 0 1.655 0 3.632V38.98c0 1.976 1.63 3.54 3.607 3.54h30.388c1.977 0 3.572-1.564 3.572-3.54V3.63C37.567 1.655 35.972 0 33.995 0z"/></g></svg>