<svg width="195" height="42" viewBox="0 0 195 42" xmlns="http://www.w3.org/2000/svg"><title>Slice 1</title><g fill="none" fill-rule="evenodd"><g fill="#77787B"><path d="M68.658 24.14l-1.16 3.243h-.066c-.207-.76-.554-1.838-1.098-3.21L60.13 8.608H54.06v24.75h4V18.142c0-.94-.02-2.074-.06-3.372-.02-.658-.094-1.184-.112-1.585h.088c.203.932.414 1.642.567 2.117l7.44 18.054h2.8L76.17 15.14c.168-.416.346-1.227.51-1.955h.087c-.096 1.803-.178 3.45-.19 4.444v15.726h4.27V8.606H75.02L68.658 24.14zM84.865 15.62h4.172v17.736h-4.172zM86.995 8.083c-.688 0-1.286.234-1.778.697-.494.464-.744 1.05-.744 1.74 0 .68.247 1.253.736 1.705.485.45 1.086.68 1.785.68.698 0 1.302-.23 1.793-.68.495-.452.746-1.026.746-1.705 0-.666-.244-1.245-.725-1.72-.483-.477-1.093-.717-1.815-.717zM103.808 15.442c-.803-.166-1.587-.25-2.332-.25-1.914 0-3.62.41-5.074 1.22-1.454.81-2.58 1.968-3.345 3.44-.764 1.47-1.15 3.184-1.15 5.097 0 1.675.375 3.212 1.116 4.568.743 1.36 1.793 2.42 3.122 3.157 1.33.736 2.863 1.11 4.56 1.11 1.984 0 3.677-.397 5.034-1.18l.054-.03v-3.822l-.175.128c-.617.45-1.303.806-2.042 1.063-.738.257-1.41.388-2 .388-1.636 0-2.95-.51-3.904-1.522-.956-1.01-1.44-2.43-1.44-4.217 0-1.797.504-3.254 1.5-4.328.994-1.072 2.31-1.615 3.913-1.615 1.372 0 2.71.464 3.972 1.38l.174.128v-4.027l-.056-.03c-.476-.268-1.125-.488-1.93-.656zM117.555 15.312c-1.048 0-1.986.337-2.79 1-.706.583-1.216 1.382-1.606 2.38h-.045V15.62h-4.17v17.736h4.17v-9.073c0-1.543.35-2.81 1.04-3.767.682-.946 1.59-1.425 2.698-1.425.377 0 .798.063 1.255.185.452.122.78.255.973.394l.176.125V15.59l-.068-.03c-.387-.164-.937-.248-1.633-.248zM128.886 15.193c-2.925 0-5.248.857-6.904 2.547-1.655 1.69-2.494 4.03-2.494 6.954 0 2.777.82 5.01 2.435 6.638 1.616 1.627 3.815 2.452 6.535 2.452 2.835 0 5.112-.868 6.768-2.582 1.655-1.712 2.494-4.028 2.494-6.885 0-2.82-.788-5.07-2.34-6.687-1.554-1.617-3.74-2.437-6.494-2.437zm3.317 13.656c-.783.982-1.963 1.48-3.505 1.48-1.533 0-2.742-.507-3.593-1.508-.857-1.007-1.29-2.442-1.29-4.266 0-1.88.433-3.352 1.29-4.376.852-1.017 2.05-1.533 3.56-1.533 1.463 0 2.63.493 3.464 1.466.84.978 1.264 2.44 1.264 4.34 0 1.928-.4 3.406-1.19 4.396zM146.972 22.95c-1.315-.53-2.157-.968-2.504-1.303-.335-.325-.505-.784-.505-1.366 0-.515.21-.93.642-1.263.433-.337 1.038-.507 1.796-.507.706 0 1.426.11 2.14.33.716.217 1.344.508 1.87.865l.173.118v-3.857l-.067-.03c-.484-.206-1.122-.384-1.897-.527-.773-.144-1.474-.217-2.082-.217-1.99 0-3.635.51-4.892 1.513-1.265 1.01-1.906 2.333-1.906 3.935 0 .833.138 1.573.41 2.2.275.63.7 1.184 1.263 1.65.56.46 1.423.943 2.567 1.435.962.396 1.68.73 2.135.994.446.258.762.518.94.77.174.25.262.587.262 1.006 0 1.193-.892 1.77-2.73 1.77-.68 0-1.457-.14-2.307-.42-.852-.28-1.648-.684-2.365-1.2l-.175-.126v4.067l.064.03c.598.276 1.35.508 2.24.69.887.185 1.692.277 2.39.277 2.16 0 3.897-.51 5.167-1.52 1.277-1.015 1.924-2.37 1.924-4.03 0-1.195-.348-2.22-1.035-3.046-.683-.82-1.866-1.574-3.518-2.24zM162.74 15.193c-2.924 0-5.246.857-6.903 2.547-1.655 1.69-2.494 4.03-2.494 6.954 0 2.777.82 5.01 2.436 6.638 1.614 1.627 3.813 2.452 6.534 2.452 2.834 0 5.11-.868 6.767-2.582 1.656-1.712 2.496-4.028 2.496-6.885 0-2.82-.788-5.07-2.34-6.687-1.554-1.617-3.74-2.437-6.495-2.437zm3.32 13.656c-.785.982-1.964 1.48-3.507 1.48-1.532 0-2.74-.507-3.593-1.508-.856-1.007-1.29-2.442-1.29-4.266 0-1.88.434-3.352 1.29-4.376.852-1.017 2.05-1.533 3.56-1.533 1.463 0 2.63.493 3.465 1.466.84.978 1.265 2.44 1.265 4.34 0 1.928-.4 3.406-1.19 4.396zM193.82 19.022V15.62h-4.224v-5.29l-.142.043-3.97 1.215-.077.024v4.008h-6.26v-2.233c0-1.04.233-1.834.69-2.364.457-.526 1.107-.792 1.936-.792.597 0 1.215.142 1.837.42l.155.07V7.134l-.073-.026c-.58-.21-1.368-.316-2.346-.316-1.233 0-2.353.27-3.328.8-.978.533-1.747 1.293-2.284 2.26-.538.964-.81 2.078-.81 3.31v2.457h-2.94v3.403h2.94v14.334h4.224V19.022h6.26v9.11c0 3.75 1.77 5.652 5.26 5.652.573 0 1.176-.067 1.792-.2.628-.134 1.055-.27 1.306-.413l.056-.03v-3.436l-.172.114c-.23.153-.515.278-.85.37-.336.095-.616.142-.833.142-.818 0-1.423-.22-1.798-.654-.38-.44-.573-1.206-.573-2.28v-8.374h4.224z"/></g><path fill="#F26522" d="M.38.34h19.625v19.626H.38z"/><path fill="#8DC63F" d="M22.05.34h19.625v19.626H22.05z"/><path fill="#00AEEF" d="M.38 22.017h19.625v19.626H.38z"/><path fill="#FFC20E" d="M22.05 22.017h19.625v19.626H22.05z"/></g></svg>