<svg width="108" height="141" viewBox="0 0 108 141" xmlns="http://www.w3.org/2000/svg"><title>Slice 1</title><g fill="none" fill-rule="evenodd"><g fill="#CB3349"><path d="M25.85 46.547S9.117 58.323 8.463 62.81l1.255-.26s20.034-13.28 35.916-14.898l.36-2.016-20.147.91zM52.113 44.863l-13.18 9.348.713.573c.537-.434 23.41-7.42 23.41-7.42l4.822-3.023c-3.236.403-15.765.523-15.765.523zM63.567 56.17c9.357 0 23.385-9.166 23.385-9.166l-4.534-.863c-.225.225-7.313-.248-7.313-.248l-3.364-.935-8.038 9.16-.654 1.59c.578-.235.52.462.52.462z"/></g><path d="M94.104 85.398l-2.89.814-13.36-.288-8.354-6.498-10.1 2.526-11.68-1.01-6.54 7.147-12.275 3.666-6.13-1.9c-.194-.17-.307-.266-.307-.266l2.75 6.735s6.23 6.68 9.71 7.466c3.48.787 9.768-.055 14.484-.786 4.714-.73 8.476-2.413 9.99-5.163 1.516-2.75 1.74-3.535 1.74-3.535s4.492 6.343 8.364 7.073c3.873.73 15.38-3.2 15.38-3.2s7.017-1.908 8.25-4.322c1.236-2.413 4.492-10.328 4.492-10.328l-3.524 1.87zM24.06 90.885l-.193-.09c-.46-.397-.837-.72-1.082-.933l1.276 1.023z" fill="#CB3349"/><path d="M105.45 37.682c-.028-.36-.07-.72-.112-1.08-.03-.254-.072-.52-.116-.766-.964-.81-2.06-1.533-3.2-2.188-1.236-.722-2.53-1.37-3.85-1.97-1.31-.618-2.656-1.178-4.01-1.724-.677-.274-1.358-.54-2.043-.794-.683-.266-1.372-.514-2.063-.766 1.45.24 2.885.57 4.31.936.926.24 1.848.508 2.763.795C90.618 13.105 75.05 2.02 58.05 2.02c-17.003 0-32.57 11.085-39.08 28.105.915-.287 1.836-.555 2.76-.795 1.427-.366 2.862-.696 4.312-.936-.693.252-1.38.5-2.065.766-.68.254-1.363.52-2.042.794-1.354.546-2.697 1.106-4.01 1.725-1.318.6-2.612 1.246-3.85 1.968-1.14.655-2.233 1.377-3.2 2.188-.04.246-.082.512-.114.766-.042.36-.082.72-.11 1.08-.065.725-.09 1.453-.097 2.184-.014 1.46.084 2.917.27 4.36.198 1.448.464 2.886.856 4.275.193.698.413 1.384.666 2.05.128.33.266.657.41.975.073.158.148.315.223.465l.09.176c.108.055.22.11.328.162l.647.31c.36.163.86.4 1.273.585.024-.02.047-.04.067-.06l-1.202-4.578c.254-.07 2.536-.66 6.47-1.407-.32-.06-.64-.13-.954-.205-.896-.223-1.78-.494-2.635-.84-.425-.18-.843-.376-1.24-.6-.4-.23-.793-.49-1.096-.834 4.32 1.41 13.247.77 21.182-.05 7.258-.747 14.533-1.233 21.845-1.247 7.313.014 14.59.5 21.845 1.247 7.94.82 16.867 1.46 21.186.05-.303.343-.695.603-1.094.832-.4.225-.817.42-1.24.6-.858.347-1.74.618-2.636.84-.132.033-.266.062-.4.09 4.313.8 6.823 1.45 7.092 1.523l-1.15 4.36c.232-.104.465-.205.694-.31l.646-.308.326-.16.09-.178c.078-.15.154-.307.225-.465.146-.318.285-.645.412-.977.254-.664.474-1.35.667-2.047.39-1.39.657-2.827.856-4.274.185-1.444.283-2.902.27-4.36-.005-.73-.03-1.46-.095-2.184z" fill="#F4EDAE"/><path d="M62.95 98.21c-.57.086-1.143.158-1.71.202-.368.017-.756.055-1.108.055l-.13.002c.442-.988.778-1.753 1.032-2.334.516.58 1.175 1.3 1.917 2.074zM64.195 99.477c1.777 1.76 3.977 2.767 6.4 2.946-4.07 1.653-7.904 2.29-10.86 2.49-2.944.197-5.93-.15-8.856-.953.244-.044.423-.075.64-.1.24-.03 5.487-.715 7.852-4.232l.222.005.58-.005c.394 0 .75-.032 1.127-.047.893-.076 1.766-.204 2.623-.377l.272.274z" fill="#E6CCAD"/><path d="M69.23 46.814c-.17.223-.362.468-.564.722-1.04 1.315-2.48 2.995-4.19 4.64-1.987-.062-4.03-.097-6.132-.097-3.474 0-6.804.09-9.967.245 4.47-1.854 9.838-3.666 15.65-4.754 1.7-.32 3.437-.576 5.202-.756zM43.076 48.816c-1.595 1.12-3.397 2.55-5.144 4.285-4.474.45-8.376.992-11.595 1.512 4.95-2.275 10.6-4.37 16.74-5.796zM97.734 58.05l-1.82 12.733-8.716 6.105-22.734-2.584-3.422-11.27c-.08-.274-.313-.476-.596-.522-.843-.136-1.587-.205-2.208-.205-.624 0-1.366.07-2.213.205-.28.046-.51.248-.594.522L52.093 74.03l-22.607 5.03-8.958-6.275-1.766-14.287c.385-.217.776-.433 1.17-.65.555-.12 1.18-.245 1.87-.378l1.663 13.48c.026.21.142.4.315.52l6.163 4.32c.128.085.278.13.43.13.053 0 .106-.004.163-.017l18.587-4.135c.063-.014.127-.037.185-.066.173-.092.31-.25.367-.445l3.347-11.02c.896-.232 3.196-.77 5.217-.77 2.016 0 4.317.538 5.217.77l3.347 11.02c.087.286.336.49.633.526l18.587 2.11c.18.02.365-.026.512-.13L92.7 69.45c.166-.12.278-.304.307-.51l1.646-11.516c1.236.235 2.27.45 3.08.627zM100.03 50.067l-1.6 6.07c-3.272-.722-10.46-2.137-20.245-3.09 3.197-1.364 6.452-3.073 9.426-5.21 5.823.822 10.098 1.704 12.42 2.23z" fill="#656C67"/><g fill="#E5CAA3"><path d="M34.484 69.058c1.267-.685 2.7-.584 4.94-.58.24.005.49.002.748-.003.22-.003.442-.006.676-.012 2.31-.022 4.23.197 4.197-3.43-.035-3.627-1.646-6.56-3.954-6.536-2.31.02-4.544 2.992-4.406 6.616.037.945.176 1.626.4 2.117-2.014.505-2.57 1.75-2.6 1.828zm27.774-14.92c-.896.726-1.84 1.404-2.822 1.996l-3.278 1.978c-2.056.25-3.84.76-3.942.79-.06.016-.118.042-.17.074-.16.093-.28.245-.338.427l-3.338 11-17.843 3.97-5.62-3.937-1.635-13.246c3.192-.586 7.46-1.264 12.587-1.838-.55.658-1.084 1.348-1.59 2.073l-3.052 4.38 4.444-2.962c.066-.047 2.896-1.91 7.526-4.173 4.614-.346 9.707-.57 15.156-.57 1.328 0 2.632.015 3.914.038zM81.795 67.57c-.023-.085-.508-1.544-2.657-1.288.248-.54.358-1.266.28-2.264-.283-3.618-2.388-6.495-4.696-6.414-2.308.082-3.786 3.08-3.658 6.71.126 3.624 2.064 3.598 4.372 3.517 3.1-.057 4.805-1.01 6.36-.26zM93.182 57.15l-1.608 11.26-5.667 3.968-17.818-2.024-3.326-10.95c-.075-.24-.265-.428-.508-.5-.11-.033-2.316-.662-4.655-.865l.428-.028c.37-.028 6.516-.78 13.854-3.312 8.127.624 14.763 1.624 19.3 2.45z"/></g><g fill="#C7B39A"><path d="M34.484 69.058c1.267-.685 2.7-.584 4.94-.58.24.005.49.002.748-.003.22-.003.442-.006.676-.012 2.31-.022 4.23.197 4.197-3.43-.035-3.627-1.646-6.56-3.954-6.536-2.31.02-4.544 2.992-4.406 6.616.037.945.176 1.626.4 2.117-2.014.505-2.57 1.75-2.6 1.828zm27.774-14.92c-.896.726-1.84 1.404-2.822 1.996l-3.278 1.978c-2.056.25-3.84.76-3.942.79-.06.016-.118.042-.17.074-.16.093-.28.245-.338.427l-3.338 11-17.843 3.97-5.62-3.937-1.635-13.246c3.192-.586 7.46-1.264 12.587-1.838-.55.658-1.084 1.348-1.59 2.073l-3.052 4.38 4.444-2.962c.066-.047 2.896-1.91 7.526-4.173 4.614-.346 9.707-.57 15.156-.57 1.328 0 2.632.015 3.914.038zM81.795 67.57c-.023-.085-.508-1.544-2.657-1.288.248-.54.358-1.266.28-2.264-.283-3.618-2.388-6.495-4.696-6.414-2.308.082-3.786 3.08-3.658 6.71.126 3.624 2.064 3.598 4.372 3.517 3.1-.057 4.805-1.01 6.36-.26zM93.182 57.15l-1.608 11.26-5.667 3.968-17.818-2.024-3.326-10.95c-.075-.24-.265-.428-.508-.5-.11-.033-2.316-.662-4.655-.865l.428-.028c.37-.028 6.516-.78 13.854-3.312 8.127.624 14.763 1.624 19.3 2.45z"/></g><path d="M100.96 62.1c.274.226.49.81.246 3.527-.3 3.327-1.7 9.167-2.566 10.108-.955.185-2.96-.034-4.182-.32.212-.838.272-1.24.442-2.097l2.138-1.496c.17-.118.283-.304.312-.506l1.493-10.466c.907.492 1.84 1.022 2.117 1.25zM22.17 75.76c.106.38.218.758.335 1.13-1.15.338-3.492.662-4.552.477-.878-.885-2.516-6.972-2.874-10.204-.292-2.62-.088-3.185.178-3.405.31-.26 1.467-.918 2.47-1.456l1.354 10.995c.026.21.14.398.315.52l2.772 1.944zM65.403 75.915l-.082.7s-2.462 2.285-6.427 2.796c-3.965.512-7.082-1.924-7.082-1.924.13.424.317 1.38 1.215 2.196-1.057-.126-2.198-.21-3.394-.21-.432 0-.868.012-1.29.032-2.44.127-5.874 3.817-8.288 7.535-1.184.374-4.887 1.55-9.172 2.815-4-5.543-5.968-11.206-6.167-11.793l.003-.002c-.08-.225-.162-.45-.237-.682l1.028.72 2.54 1.78.85.592c.127.09.277.136.427.136.055 0 .11-.005.164-.016l23.352-5.2c.262-.057.474-.254.552-.51l3.33-10.964c.575-.078 1.08-.118 1.513-.118.43 0 .94.04 1.513.118l3.428 11.29c.087.285.335.494.63.525l1.595.185z" fill="#E6CCAD"/><path d="M92.06 75.308l.753-.53c-.125.524-.26 1.044-.4 1.557-1.05 3.36-2.286 6.33-3.66 8.956-.304.022-.625.033-.968.033-1.06 0-2.143-.09-3.342-.2-2.08-.19-5.38-.568-6.423-.69-.898-.716-3.97-3.157-6.527-5.17-.1-.08-.187-.156-.27-.225-.45-.38-.963-.814-2-.814-.94 0-2.316.343-5.64 1.35 1.727-1.292 1.74-2.96 1.74-2.96l.08-.7 21.91 2.488c.177.02.362-.025.513-.13l2.2-1.542 2.033-1.422z" fill="#E6CCAD"/><path d="M75.935 29.215c.067 1.95.018 5.48-.89 8.787-.036.128-.03.258 0 .38-1.154-.122-2.31-.226-3.465-.32 1.297-2.717 1.58-5.61 1.64-6.63.997-.707 1.988-1.556 2.715-2.217zM42.88 31.433c.06 1.02.342 3.907 1.637 6.622-1.156.092-2.31.2-3.463.32.03-.118.035-.245 0-.373-.907-3.3-.953-6.835-.89-8.787.728.66 1.716 1.51 2.715 2.218z" fill="#EBD599"/><path d="M81.795 67.57c-1.554-.75-3.258.203-6.36.26-2.307.082-4.245.108-4.372-3.517-.128-3.627 1.35-6.627 3.66-6.71 2.306-.08 4.41 2.797 4.695 6.416.078.996-.032 1.723-.28 2.263 2.15-.257 2.634 1.2 2.657 1.288zm-7.252-5.31c.65-.015 1.17-.552 1.158-1.202-.01-.653-.547-1.173-1.2-1.158-.653.01-1.17.548-1.158 1.2.012.65.55 1.17 1.2 1.16z" fill="#2D3136"/><path d="M75.7 61.058c.013.65-.507 1.187-1.157 1.2-.652.013-1.19-.507-1.2-1.157-.013-.652.504-1.19 1.156-1.2.653-.014 1.19.505 1.2 1.158z" fill="#EDF6FA"/><path d="M45.045 65.032c.034 3.627-1.886 3.408-4.196 3.43-.235.006-.457.01-.677.012-.26.006-.508.01-.748.003-2.24-.003-3.673-.105-4.94.58.03-.078.586-1.323 2.6-1.828-.224-.492-.363-1.173-.4-2.118-.138-3.624 2.096-6.596 4.407-6.616 2.307-.023 3.918 2.91 3.953 6.536zm-3.567-1.897c.65-.017 1.164-.56 1.147-1.21-.017-.653-.56-1.167-1.21-1.15-.653.017-1.167.56-1.15 1.21.018.653.56 1.167 1.213 1.15z" fill="#2D3136"/><path d="M42.625 61.924c.017.65-.497 1.194-1.147 1.21-.653.018-1.196-.495-1.213-1.15-.018-.65.497-1.192 1.15-1.21.65-.016 1.193.498 1.21 1.15z" fill="#EDF6FA"/><g fill="#EBD599"><path d="M27.414 40.408s.358-4.673 1.09-6.464c.38-.923 2.687-1.51 4.45-1.93 1.763-.42 4.575-1.26 5.12 1.217.547 2.477 1.427 4.282 2.015 5.08l-.756-10.2-12.13 2.938-.798 9.025.378.714.63-.38M88.795 40.408s-.358-4.673-1.09-6.464c-.38-.923-2.687-1.51-4.45-1.93-1.763-.42-4.575-1.26-5.12 1.217-.546 2.477-1.428 4.282-2.017 5.08l.757-10.2 12.13 2.938.8 9.025-.38.714-.63-.38"/></g><path d="M71.65 9.88s-.322 24.46-6.035 24.46H50.76c-5.713 0-6.175-24.448-6.175-24.448l-2.806 8.3.045 11.39 1.993 1.584.905 4.89 1.268 2.853 24.455.045 1.13-2.038.952-3.44.137-2.175 2.7-7.71-3.715-13.71zM89.642 32.687s1.176 8.437 4.288 9.958c3.112 1.52 0 0 0 0l-4.357-1.314.07-8.643zM26.455 32.687s-1.176 8.437-4.288 9.958c-3.112 1.52 0 0 0 0l4.358-1.314-.07-8.643z" opacity=".75" fill="#EBD599"/><path d="M90.48 41.292c1.48.485 2.97 1 4.32 1.788-.722-.286-1.467-.49-2.218-.676-.748-.19-1.502-.352-2.26-.496-1.515-.286-3.036-.528-4.568-.714-1.527-.2-3.057-.367-4.595-.497-1.537-.13-3.07-.26-4.61-.35-6.154-.377-12.326-.472-18.5-.48-6.175.005-12.346.12-18.5.484-1.54.09-3.074.22-4.61.35-1.536.13-3.07.295-4.595.497-1.53.185-3.053.427-4.57.713-.755.142-1.51.307-2.26.494-.748.185-1.497.39-2.218.676 1.35-.788 2.84-1.305 4.323-1.79.125-.04.25-.076.378-.116-.008-.032-.017-.06-.023-.095-.026-.17-.575-4.227.38-10.026.047-.277.247-.502.518-.577l1.568-.447c.342-12.165 5.352-17.886 5.51-18.063-4.478 7.203-4.437 15.746-4.36 17.736l9.748-2.77c.01-.002.014-.002.023-.005.042-.01.082-.015.122-.018.01 0 .026-.003.04-.003.05-.003.105.003.16.014.008 0 .017.007.03.01.04.01.076.023.12.04.017.01.028.018.046.027.03.017.063.038.095.06.01.006.018.01.026.018l.017.017c.008.01.02.015.03.023.005.01.264.266.677.65-.097-3.21.056-12.424 4.442-20.06-.092.268-3.572 10.446-2.373 21.854.39.31.8.617 1.198.885.194.133.313.352.315.587.004.037.087 3.673 1.693 6.767.023.044.04.094.055.143 3.994-.272 8-.38 11.997-.384 3.998.002 8 .118 11.994.392.015-.052.032-.104.058-.153 1.606-3.095 1.69-6.73 1.69-6.768.005-.235.123-.454.317-.587.398-.27.802-.574 1.195-.886 1.2-11.41-2.28-21.587-2.37-21.855 4.383 7.636 4.54 16.85 4.442 20.06.41-.384.67-.64.677-.65.01-.008.02-.014.03-.023l.017-.017c.01-.01.018-.012.027-.018l.095-.064c.015-.005.03-.014.044-.022.043-.017.083-.03.126-.042.01 0 .018-.006.027-.006.05-.01.106-.017.158-.015.015 0 .026.004.037.004.04.004.084.01.124.018.005.003.014.003.022.006l9.747 2.77c.077-1.99.118-10.533-4.358-17.736.155.176 5.166 5.897 5.504 18.062l1.57.447c.27.075.472.3.518.578.956 5.8.405 9.854.38 10.024-.004.034-.013.066-.022.097.126.037.25.075.377.115zm-1.774-.52c.076-.65.425-4.2-.318-9.034l-11.033-3.136c.1 1.87.143 5.92-.918 9.785-.014.047-.03.093-.054.14.11.01.22.02.326.033 3.1.356 6.188.852 9.24 1.522.922.214 1.844.442 2.756.69zm-13.66-2.77c.907-3.306.956-6.838.89-8.787-.728.662-1.72 1.51-2.715 2.218-.06 1.02-.343 3.913-1.64 6.63 1.155.094 2.31.198 3.466.32-.032-.123-.037-.253 0-.38zm-30.53.053c-1.294-2.715-1.577-5.603-1.637-6.622-1-.708-1.988-1.557-2.716-2.218-.063 1.952-.017 5.487.89 8.787.035.128.03.255 0 .374 1.152-.122 2.307-.23 3.463-.32zm-4.802.465c-.02-.04-.038-.086-.052-.133-1.063-3.864-1.016-7.916-.92-9.785l-11.03 3.136c-.742 4.83-.396 8.38-.32 9.03.914-.247 1.833-.476 2.757-.69 1.524-.337 3.06-.62 4.6-.88 1.542-.257 3.09-.453 4.638-.64.11-.015.216-.023.326-.038z" fill="#2D3136"/><path d="M69.68 10.195v9.154h-6.49v-2.675h-1.463V29.03h2.21v6.91h-11.35v-6.91h2.2V16.675H53.33v2.674h-6.485v-9.155H69.68zm-1.95 7.21V12.14H48.79v5.264h2.59V14.73h5.357v16.25h-2.204v3.015h7.455V30.98h-2.205V14.73h5.358v2.674h2.59z" fill="#2D3136"/><path d="M67.73 12.14v5.264h-2.59V14.73h-5.358v16.25h2.205v3.014h-7.454V30.98h2.204V14.73H51.38v2.674h-2.59V12.14H67.73z" fill="#CB3349"/><path d="M16.662 50.067c.946-.215 2.224-.488 3.79-.79-.962.656-2.1 1.48-3.345 2.47l-.445-1.68z" fill="#656C67"/><path d="M51.296 75.154s.265 1.702-2.117 2.43c-2.382.73-17.465 5.224-19.185 4.98-1.72-.242-6.086-3.157-6.086-3.157l-1.06-3.766 6.46 4.03 21.986-4.516zM64.81 74.825s-.19 1.71 2.22 2.336c2.41.625 17.676 4.46 19.383 4.143 1.708-.318 5.943-3.42 5.943-3.42l.894-3.81-5.938 3.543-22.503-2.79z" fill="#C7B39A"/><path d="M15.435 72.023s2.09 4.18 5.466 2.733l2.413.885-.242 1.77-5.063.642-1.367-.803-1.205-5.227zM100.998 70.876s-3.416 4.363-6.792 2.916l-1.086.7.24 1.77 5.065.642 1.367-.804 1.206-5.224zM48.16 103.717s12.383 6.243 26.403-2.252l-4.502-.307s-9.824 3.89-17.6 1.74l-4.3.82z" fill="#C7B39A"/><path d="M60.713 92.214l.857 1.02c.02.026 1.924 2.292 4.25 4.6 1.55 1.533 3.42 2.31 5.562 2.31.732 0 1.5-.094 2.277-.28.72-.177 1.502-.363 2.304-.555 2.894-.693 6.173-1.48 7.763-1.924.314-.09.665-.17 1.035-.254 2.115-.49 5.016-1.163 6.552-4.242 1.156-2.31 2.714-5.31 3.87-7.506-1.002.462-2.052.962-2.798 1.354-1.15.604-2.655.897-4.6.897-1.158 0-2.295-.097-3.553-.21-2.513-.23-6.767-.73-6.81-.737l-.326-.036-.257-.206c-.038-.027-3.765-2.997-6.777-5.366l-.334-.275c-.318-.27-.318-.27-.508-.27-.966 0-3.774.87-9.926 2.777l-.378.12-.37-.14c-.043-.014-4.08-1.51-8.916-1.51-.395 0-.79.01-1.175.03-.484.024-3.203 1.316-6.68 6.817l-.226.352-.397.128c-.058.02-6.042 1.95-12.39 3.766l-.41.117-.39-.18c-.042-.018-2.525-1.17-4.888-2.256 1.29 1.904 2.937 4.28 4.387 6.14 2.533 3.263 5.726 6.277 11.847 6.277.766 0 1.582-.047 2.42-.142 6.227-.704 7.83-.988 8.693-1.138.292-.05.523-.092.82-.128.046-.006 5.145-.665 6.575-3.875 1.475-3.297 1.773-4.082 1.784-4.112l.52-1.39s.066-.36.17-.47c0 .003 0 .003.004.003l.01.01c.165.116.407.484.407.484zm-38.78-62.26c-1.352.544-2.696 1.107-4.01 1.724-1.317.602-2.61 1.248-3.847 1.968-1.14.657-2.235 1.378-3.2 2.19-.043.246-.082.513-.115.766-.04.36-.082.718-.11 1.08-.064.724-.09 1.453-.097 2.182-.014 1.46.086 2.918.27 4.362.2 1.447.464 2.886.856 4.275.195.698.412 1.385.668 2.047.125.335.264.66.41.977.07.158.146.315.22.465l.093.174c.11.056.22.11.327.162l.648.31c.362.166.86.403 1.272.586.025-.02.048-.042.067-.06l-1.2-4.577c.254-.07 2.536-.66 6.47-1.408-.318-.06-.64-.128-.955-.204-.895-.222-1.78-.495-2.635-.84-.423-.18-.843-.376-1.24-.6-.4-.23-.792-.488-1.095-.833 4.32 1.41 13.246.77 21.183-.048 7.258-.75 14.53-1.233 21.844-1.25 7.312.017 14.59.5 21.845 1.25 7.94.818 16.868 1.46 21.187.048-.304.345-.696.603-1.095.832-.397.225-.818.42-1.24.6-.86.346-1.74.62-2.637.84-.13.032-.265.063-.398.09 4.312.8 6.822 1.45 7.09 1.524l-1.15 4.358c.232-.103.465-.202.693-.31l.648-.308c.107-.05.22-.105.327-.162l.09-.175c.077-.15.152-.307.225-.465.144-.318.283-.643.412-.978.253-.662.473-1.35.665-2.045.392-1.39.66-2.828.856-4.276.186-1.444.284-2.903.27-4.36-.005-.73-.033-1.46-.094-2.183-.03-.362-.07-.72-.115-1.08-.03-.254-.072-.52-.114-.765-.966-.814-2.06-1.534-3.2-2.192-1.237-.72-2.53-1.366-3.85-1.967-1.31-.62-2.658-1.18-4.01-1.727-.678-.273-1.36-.54-2.045-.793-.68-.265-1.372-.515-2.062-.765 1.45.24 2.886.57 4.308.934.927.24 1.852.51 2.764.795-6.51-17.02-22.08-28.104-39.08-28.104s-32.57 11.084-39.08 28.105c.916-.286 1.838-.556 2.762-.796 1.425-.365 2.86-.696 4.312-.935-.694.25-1.382.5-2.066.765-.68.252-1.363.52-2.042.793zm85.72 9.847c.08 1.568.037 3.137-.14 4.696-.163 1.556-.458 3.098-.87 4.627-.214.76-.46 1.51-.754 2.257-.15.373-.307.743-.48 1.114-.086.183-.178.364-.28.55l-.154.276c-.056.1-.1.175-.187.31l-.16.245-.247.127c-.264.136-.48.24-.72.35l-.7.316c-.467.2-.938.39-1.408.572-.33.13-.618.246-.893.363l-.777 2.95c-.02-.005-.253-.065-.69-.17l-.042.31c.857.447 2.54 1.355 3.115 1.828 1.154.956 1.236 2.467.98 5.292-.13 1.45-.613 4.273-1.28 6.864-1.154 4.462-1.766 4.986-2.557 5.188-.4.103-1.017.206-1.616.206-1.22 0-2.878.034-3.994-.236-.287 1.016-1.105 3.663-2.726 6.97.082-.04.162-.073.235-.11 1.997-1.05 5.838-2.724 6-2.796l3.034-1.32-1.553 2.923c-.035.065-3.368 6.33-5.408 10.423-2.026 4.053-5.825 4.935-8.1 5.458-.342.082-.667.157-.932.23-1.63.458-4.935 1.246-7.85 1.947-.033.01-.07.018-.105.023-1.793 1.108-3.75 2.096-5.89 2.91-7.833 2.966-16.088 2.8-23.574.048-1.214.157-2.813.348-4.94.59-.926.103-1.825.157-2.682.157-7.13 0-10.91-3.62-13.67-7.167-2.953-3.798-6.566-9.434-6.72-9.67l-2.092-3.268 3.54 1.592c1.695.763 6.734 3.095 8.175 3.763.118-.032.232-.066.346-.1-2.396-3.417-4.36-7.315-5.75-11.63-1.18.354-2.998.63-4.412.63-.517 0-.98-.04-1.336-.123-.79-.18-1.692-.943-2.92-5.266-.712-2.51-1.244-5.25-1.4-6.66-.306-2.753-.25-4.228.894-5.18.69-.577 3.016-1.8 3.498-2.05l-.102-.85C9.965 63.653 5.534 67.492 5.445 67.57L.16 72.21l3.765-5.94c2.98-4.708 6.424-8.513 9.592-11.444l-.382-.158-.698-.315c-.24-.112-.456-.215-.72-.35l-.248-.128-.16-.246c-.09-.134-.128-.21-.186-.31l-.156-.275c-.097-.187-.192-.368-.278-.55-.176-.372-.334-.742-.48-1.115-.292-.746-.54-1.497-.754-2.257-.414-1.53-.707-3.07-.87-4.627-.174-1.56-.218-3.128-.14-4.695.042-.782.116-1.563.225-2.34.057-.39.115-.78.193-1.166.08-.395.16-.763.28-1.194l.082-.303.217-.17c1.234-.97 2.564-1.7 3.917-2.35 1.112-.523 2.248-.985 3.392-1.406 3.196-8.867 8.69-16.73 15.91-22.21C40.127 2.995 48.906 0 58.05 0S75.97 2.995 83.436 8.66c7.22 5.48 12.715 13.343 15.908 22.21 1.147.422 2.28.88 3.396 1.408 1.353.648 2.684 1.38 3.916 2.348l.218.17.083.304c.123.43.2.8.278 1.194.08.387.14.777.192 1.166.11.777.188 1.56.226 2.34zm-6.45 25.826c.246-2.716.032-3.3-.244-3.524-.276-.23-1.21-.76-2.116-1.252L97.35 71.315c-.028.203-.143.388-.312.506L94.9 73.318c-.17.857-.23 1.26-.44 2.098 1.222.284 3.226.505 4.18.32.867-.94 2.266-6.78 2.564-10.11zm-2.774-9.49l1.6-6.07c-2.322-.525-6.597-1.405-12.42-2.23-2.973 2.14-6.228 3.847-9.425 5.21 9.784.953 16.973 2.37 20.244 3.09zm-2.517 14.645l1.82-12.728c-.81-.176-1.845-.392-3.082-.63l-1.643 11.52c-.03.202-.142.388-.31.506l-6.167 4.314c-.145.103-.332.15-.51.13l-18.588-2.11c-.298-.035-.545-.24-.632-.524l-3.348-11.023c-.898-.23-3.2-.77-5.214-.77-2.024 0-4.323.54-5.22.77L49.67 71.258c-.06.19-.192.35-.367.442-.056.03-.12.053-.184.067l-18.59 4.135c-.057.012-.107.018-.163.018-.15 0-.3-.044-.426-.134l-6.164-4.317c-.173-.12-.287-.31-.314-.52L21.8 57.467c-.69.134-1.314.262-1.87.378-.396.218-.785.435-1.17.652l1.765 14.285 8.96 6.277 22.608-5.03 3.337-10.994c.084-.276.314-.48.596-.524.846-.136 1.586-.205 2.213-.205.62 0 1.362.07 2.206.205.284.044.515.248.596.524l3.422 11.267 22.734 2.586 8.715-6.11zm-4.34-2.37l1.61-11.264c-4.538-.826-11.173-1.825-19.3-2.448-7.34 2.53-13.484 3.284-13.855 3.31l-.428.03c2.34.2 4.545.83 4.656.863.242.073.432.26.507.502l3.326 10.95 17.816 2.024 5.668-3.967zm1.24 6.368l-.755.528-2.032 1.426-2.202 1.542c-.15.103-.334.15-.513.13l-21.906-2.49-1.595-.18c-.296-.035-.544-.24-.63-.527l-3.43-11.29c-.573-.078-1.083-.118-1.51-.118-.436 0-.942.04-1.516.117l-3.33 10.964c-.077.257-.288.452-.55.51l-23.353 5.2c-.055.01-.11.016-.164.016-.15 0-.3-.045-.428-.136l-.85-.59-2.54-1.78v-.005l-1.027-.717c.073.23.157.456.238.682l-.003.002c.197.587 2.165 6.25 6.165 11.79 4.284-1.263 7.988-2.437 9.17-2.813 2.414-3.72 5.85-7.408 8.29-7.537.42-.02.858-.032 1.292-.032 1.194 0 2.336.087 3.393.212-.9-.816-1.083-1.773-1.214-2.196 0 0 3.116 2.435 7.082 1.926 3.967-.512 6.43-2.798 6.43-2.798s-.01 1.668-1.74 2.96c3.325-1.006 4.7-1.35 5.64-1.35 1.038 0 1.55.433 1.998.815.087.068.173.143.273.225 2.555 2.012 5.628 4.453 6.528 5.17 1.042.12 4.342.496 6.422.69 1.2.107 2.282.2 3.342.2.343 0 .663-.015.966-.035 1.376-2.624 2.61-5.597 3.66-8.954.143-.514.28-1.035.402-1.558zm-8.084-27.74c-.006-.003-.012-.006-.018-.006-1.76-.13-3.518-.25-5.283-.35-2.45-.14-4.9-.256-7.35-.36-.14.213-.43.63-.845 1.198-1.333 1.803-3.978 5.112-7.368 7.92 4.8-.86 13.123-2.99 20.325-8.014.18-.13.36-.263.537-.388zm-16.064.498c.202-.254.392-.498.562-.72-1.765.178-3.502.434-5.2.756-5.814 1.09-11.184 2.898-15.65 4.752 3.164-.153 6.493-.245 9.967-.245 2.1 0 4.144.035 6.13.093 1.71-1.642 3.152-3.323 4.19-4.637zm1.93 54.888c-2.423-.178-4.624-1.186-6.4-2.945-.093-.096-.182-.185-.27-.277-.86.173-1.732.3-2.625.38-.375.013-.732.046-1.123.046l-.583.004-.222-.005c-2.363 3.515-7.613 4.2-7.853 4.23-.218.025-.396.056-.64.1 2.926.802 5.912 1.15 8.857.952 2.952-.198 6.788-.838 10.858-2.488zm-9.357-4.012c.567-.044 1.137-.117 1.71-.203-.742-.774-1.4-1.493-1.917-2.075-.253.582-.59 1.347-1.032 2.333h.132c.353 0 .74-.038 1.107-.056zm-1.804-42.278c.982-.593 1.925-1.272 2.822-1.996-1.284-.022-2.586-.038-3.913-.038-5.45 0-10.542.223-15.157.57-4.63 2.263-7.46 4.125-7.526 4.172l-4.445 2.965 3.053-4.38c.504-.728 1.04-1.418 1.59-2.075-5.127.573-9.397 1.252-12.587 1.84l1.634 13.243 5.62 3.936 17.842-3.965 3.34-11.003c.055-.18.177-.333.336-.426.053-.033.11-.058.17-.075.102-.026 1.887-.536 3.944-.787l3.276-1.98zm2.052-10.1c-1.243-.02-2.486-.032-3.728-.034h-.003c-1.823.002-3.65.022-5.478.058l-3.37 1.598c-.004.002-.023.01-.05.025-.505.25-4.93 2.48-9.095 6.464 3.732-1.962 9.218-4.525 15.674-6.513 1.933-.592 3.96-1.138 6.048-1.597zM37.93 53.1c1.748-1.734 3.552-3.165 5.144-4.284-6.138 1.426-11.787 3.518-16.736 5.795 3.22-.52 7.12-1.06 11.592-1.51zm1.16-5.35c2.058-.576 4.18-1.08 6.353-1.503-3.118.114-6.237.26-9.352.435-1.81.1-3.61.222-5.41.36-.902.068-1.8.14-2.692.238-.256.025-.506.053-.763.087-2.35 1.405-11.36 7.06-17.544 14.457 6.01-4.178 16.482-10.455 29.41-14.074zM22.505 76.89c-.117-.372-.228-.75-.334-1.13l-2.775-1.942c-.176-.123-.287-.31-.315-.52L17.728 62.3c-1.002.538-2.16 1.197-2.47 1.456-.266.22-.47.785-.18 3.404.36 3.232 1.996 9.32 2.875 10.205 1.058.186 3.402-.14 4.55-.477zm-2.05-27.614c-1.568.303-2.846.576-3.792.79l.445 1.682c1.244-.99 2.383-1.815 3.346-2.472z" fill="#2D3136"/><g fill="#2D3136"><path d="M23.964 125.98h-4.372v-2.265h11.405v2.265h-4.35v12.862h-2.683V125.98zM30.754 127.486h2.2l.183 2.012h.096c.807-1.48 2.01-2.288 3.213-2.288.58 0 .95.067 1.295.228l-.46 2.315c-.394-.117-.696-.186-1.18-.186-.9 0-1.988.626-2.683 2.336v6.94h-2.66v-11.357h-.003zM45.002 131.58c-.02-1.202-.53-2.22-2.055-2.22-1.134 0-2.2.51-3.195 1.108l-.968-1.78c1.25-.782 2.846-1.478 4.648-1.478 2.843 0 4.232 1.734 4.232 4.9v6.734H45.49l-.21-1.252h-.063c-1.023.858-2.177 1.527-3.52 1.527-1.986 0-3.377-1.344-3.377-3.33-.002-2.43 2.035-3.702 6.682-4.21zm-2.474 5.457c.926 0 1.642-.462 2.474-1.25v-2.544c-3.07.392-4.09 1.202-4.09 2.334-.002 1.02.666 1.46 1.616 1.46zM48.424 127.486h2.71l1.8 5.897c.3 1.11.65 2.266.95 3.424h.09c.325-1.16.652-2.313.97-3.424l1.806-5.897h2.566l-3.86 11.358h-3.078l-3.954-11.358zM60.316 123.993c0-.903.697-1.527 1.644-1.527.948 0 1.642.624 1.642 1.527 0 .878-.693 1.503-1.642 1.503-.947 0-1.644-.626-1.644-1.503zm.3 3.493h2.66v11.358h-2.66v-11.358zM66.05 135.835c1.018.784 1.99 1.272 3.147 1.272 1.227 0 1.804-.578 1.804-1.365 0-.948-1.227-1.363-2.427-1.828-1.505-.553-3.193-1.41-3.193-3.306 0-1.987 1.595-3.4 4.14-3.4 1.573 0 2.845.643 3.77 1.364l-1.225 1.618c-.788-.58-1.598-.97-2.5-.97-1.132 0-1.665.532-1.665 1.25 0 .878 1.134 1.248 2.354 1.688 1.55.576 3.26 1.316 3.26 3.444 0 1.94-1.545 3.517-4.413 3.517-1.544 0-3.19-.675-4.3-1.577l1.25-1.708zM86.563 123.437c1.85 0 3.354.903 4.3 1.922l-1.48 1.663c-.787-.762-1.64-1.25-2.796-1.25-2.478 0-4.26 2.08-4.26 5.484 0 3.444 1.643 5.527 4.165 5.527 1.34 0 2.335-.555 3.193-1.503l1.478 1.644c-1.224 1.41-2.796 2.196-4.716 2.196-3.84 0-6.87-2.776-6.87-7.794 0-4.95 3.1-7.89 6.986-7.89zM92.805 123.715h2.685v15.13h-2.685v-15.13z"/></g></g></svg>