<svg width="183" height="101" viewBox="0 0 183 101" xmlns="http://www.w3.org/2000/svg"><title>Slice 1</title><g fill="none" fill-rule="evenodd"><g stroke="#333"><g fill="#3D3D3D"><path d="M59.72 24.724h1.304c.167 0 .3.033.4.134.1.1.168.2.202.3l4.516 14.086.2.803c.034.267.1.502.135.77.067-.268.134-.503.2-.77.067-.268.168-.502.268-.803l4.784-14.22c.066-.267.267-.4.5-.4h.704c.267 0 .435.133.535.4l4.716 14.22c.168.535.335 1.07.435 1.572.035-.267.102-.502.17-.77.066-.267.132-.535.233-.802L83.54 25.16c.1-.302.3-.436.602-.436h1.27L79.425 42.59h-1.27c-.202 0-.336-.134-.403-.37L72.868 27.7c-.067-.166-.1-.367-.167-.534-.034-.167-.1-.368-.134-.535-.034.168-.067.37-.1.536-.034.167-.1.368-.168.535l-4.95 14.52c-.068.27-.202.37-.436.37h-1.205L59.72 24.723zM100.1 42.59c-.368 0-.57-.168-.67-.502l-.267-2.275c-.502.468-.97.903-1.472 1.304-.467.368-1.002.703-1.504.97-.536.268-1.104.47-1.707.603-.603.134-1.272.2-2.008.2-.602 0-1.204-.1-1.773-.267-.57-.167-1.072-.47-1.54-.837-.435-.368-.803-.836-1.07-1.438-.268-.57-.402-1.272-.402-2.108 0-.77.2-1.44.636-2.108.434-.635 1.104-1.204 2.007-1.672.904-.47 2.11-.87 3.547-1.138 1.44-.3 3.18-.468 5.186-.502v-1.873c0-1.64-.368-2.91-1.07-3.814-.703-.904-1.774-1.34-3.18-1.34-.87 0-1.605.135-2.207.37-.602.234-1.104.5-1.54.802-.434.302-.77.536-1.036.803-.268.235-.47.368-.67.368-.234 0-.434-.1-.535-.334l-.3-.535c.936-.937 1.906-1.64 2.943-2.108 1.038-.47 2.208-.704 3.513-.704.97 0 1.808.168 2.51.47.703.3 1.305.735 1.774 1.303.468.568.836 1.27 1.07 2.074.234.803.368 1.706.368 2.71v11.642h-.602v-.067zm-7.193-.937c.703 0 1.338-.067 1.907-.235.57-.133 1.104-.368 1.606-.635.502-.268.97-.602 1.405-.97.435-.37.87-.77 1.27-1.205v-4.65c-1.705.033-3.177.167-4.38.4-1.24.202-2.243.503-3.046.838-.804.368-1.373.803-1.774 1.27-.368.503-.57 1.072-.57 1.707 0 .602.102 1.104.302 1.54.2.434.47.802.77 1.07.334.267.702.502 1.137.635.47.168.904.235 1.372.235zM106.825 42.59V26.596l-2.51-.167c-.334-.033-.535-.167-.535-.435v-.702h3.045v-2.275c0-1.004.133-1.907.4-2.677.27-.768.637-1.404 1.105-1.94.47-.5 1.07-.903 1.74-1.17.67-.268 1.405-.402 2.24-.402.37 0 .737.034 1.14.1.367.068.7.168 1.003.268l-.067.837c0 .167-.134.267-.335.267-.133 0-.333-.033-.568-.067-.234-.033-.535-.066-.903-.066-.603 0-1.138.1-1.64.267s-.937.47-1.272.837c-.368.37-.635.87-.836 1.506-.2.602-.3 1.372-.3 2.275v2.21h5.787v1.27h-5.756v16.026h-1.74v.033z"/><path d="M117.296 42.59V26.596l-2.51-.167c-.333-.033-.534-.167-.534-.435v-.702h3.044v-2.275c0-1.004.134-1.907.402-2.677.267-.768.635-1.404 1.104-1.94.468-.5 1.07-.903 1.74-1.17.67-.268 1.405-.402 2.24-.402.37 0 .737.034 1.14.1.367.068.7.168 1.002.268l-.067.837c0 .167-.133.267-.334.267-.134 0-.335-.033-.57-.067-.233-.033-.534-.066-.902-.066-.6 0-1.137.1-1.64.267-.5.167-.935.47-1.27.837-.368.37-.636.87-.836 1.506-.2.602-.3 1.372-.3 2.275v2.21h5.786v1.27h-5.754v16.026h-1.74v.033zM128.37 16.46v26.13h-1.706V16.46h1.706zM141.418 24.456c1.004 0 1.94.168 2.777.536.87.334 1.606.836 2.24 1.505.637.67 1.105 1.472 1.473 2.442.368.97.536 2.074.536 3.345 0 .268-.034.435-.1.535-.068.1-.2.134-.37.134h-12.88v.335c0 1.337.168 2.508.47 3.545.3 1.004.77 1.873 1.337 2.543.57.702 1.273 1.204 2.076 1.54.803.333 1.74.534 2.743.534.902 0 1.672-.1 2.34-.3.67-.202 1.205-.436 1.674-.67.435-.235.803-.47 1.07-.67.268-.2.47-.3.57-.3.166 0 .267.066.367.167l.47.567c-.302.368-.67.703-1.138 1.004-.468.302-1.004.57-1.572.804-.57.234-1.205.402-1.874.535-.67.133-1.338.2-2.007.2-1.206 0-2.343-.2-3.347-.636-1.004-.435-1.873-1.037-2.576-1.873-.736-.802-1.27-1.806-1.673-2.977-.4-1.17-.602-2.542-.602-4.048 0-1.27.167-2.476.535-3.546.368-1.072.904-2.01 1.573-2.81.702-.77 1.54-1.407 2.542-1.842.937-.4 2.075-.602 3.346-.602zm0 1.272c-.937 0-1.74.133-2.476.435-.736.3-1.37.702-1.907 1.237-.535.536-.97 1.17-1.304 1.94-.334.77-.535 1.607-.67 2.543h11.81c0-.97-.132-1.806-.4-2.576s-.636-1.405-1.104-1.94c-.47-.535-1.037-.937-1.706-1.204-.67-.302-1.406-.435-2.242-.435zM152.258 41.72c0-.335.1-.603.334-.837.234-.234.502-.334.803-.334.335 0 .602.1.837.333.234.234.334.502.334.836 0 .334-.1.602-.334.802-.235.235-.502.335-.837.335-.334 0-.602-.1-.803-.335-.2-.2-.334-.468-.334-.803zM161.76 18.468c0 .267-.1.468-.302.67-.2.2-.435.3-.702.3-.268 0-.502-.1-.703-.3-.2-.202-.3-.436-.3-.67 0-.268.1-.502.3-.703.2-.2.435-.3.703-.3.267 0 .468.1.702.3.167.2.3.435.3.703zm-.804 6.524V42.59h-.435V24.99h.436zM174.205 24.724c1.238 0 2.342.234 3.278.67.97.434 1.774 1.036 2.41 1.84.635.802 1.137 1.74 1.47 2.876.336 1.104.503 2.376.503 3.714 0 1.372-.167 2.61-.502 3.714-.334 1.104-.836 2.04-1.472 2.843-.635.804-1.472 1.406-2.41 1.808-.97.435-2.04.636-3.277.636-1.238 0-2.342-.2-3.28-.636-.936-.435-1.74-1.037-2.408-1.807-.635-.802-1.137-1.738-1.472-2.842-.334-1.105-.502-2.342-.502-3.714 0-1.372.168-2.61.502-3.714.335-1.104.837-2.074 1.472-2.877.636-.803 1.44-1.405 2.41-1.84.936-.468 2.04-.67 3.278-.67zm0 17.732c1.204 0 2.24-.2 3.145-.636.903-.435 1.672-1.004 2.275-1.773.602-.77 1.07-1.673 1.37-2.744.302-1.07.47-2.24.47-3.546 0-1.305-.168-2.476-.47-3.546-.3-1.07-.768-1.973-1.37-2.743-.603-.77-1.372-1.37-2.275-1.773-.904-.435-1.974-.636-3.145-.636-1.205 0-2.275.2-3.18.636-.902.435-1.67 1.004-2.274 1.773-.6.77-1.07 1.673-1.37 2.744-.3 1.07-.47 2.242-.47 3.547 0 1.305.17 2.476.47 3.546.3 1.07.77 1.974 1.37 2.744.604.77 1.373 1.338 2.276 1.773.904.4 1.974.636 3.18.636z"/></g><path d="M108.53 26.53l8.934.034-.2-.803-8.733.77z" fill="#3A3A3A"/></g><g fill="#FFD150"><path d="M5.688 33.657L30.21 10.07l24.524 23.587L30.21 57.21 5.688 33.657zm3.813 0l20.71 19.906 20.71-19.906-20.71-19.94L9.5 33.657z"/><path d="M25.527 50.886l-1.907-1.84L46.236 27.3l1.907 1.84-22.616 21.746zM19.873 45.433l-1.907-1.84 22.616-21.746 1.907 1.84-22.617 21.746zM14.22 40.013l-1.908-1.84 22.616-21.746 1.907 1.84L14.22 40.013z"/><path d="M46.236 40.013L23.62 18.267l1.907-1.84 22.616 21.746-1.907 1.84zM40.582 45.433L17.966 23.687l1.907-1.84L42.49 43.593l-1.908 1.84zM34.928 50.886L12.312 29.14l1.907-1.84 22.615 21.746-1.907 1.84z"/><path d="M37.67 69.287c.102 1.44-.935 2.61-2.073 2.61-1.137 0-2.275-1.205-2.074-2.61.3-1.94 1.305-2.61 1.405-6.09.3-12.612.468-16.86.67-16.09 1.304 5.42.87 5.553 1.003 16.158.034 3.446.97 4.617 1.07 6.022zM43.225 59.384c.1.87-.736 1.573-1.64 1.573-.903 0-1.806-.703-1.64-1.573.236-1.17 1.038-1.572 1.105-3.646.235-7.595-.167-11.375.536-11.375.702 0 .568 3.847.803 11.408.032 2.075.735 2.778.835 3.614z"/></g></g></svg>