<svg width="194" height="74" viewBox="0 0 194 74" xmlns="http://www.w3.org/2000/svg"><title>Slice 1</title><g fill="#333" fill-rule="evenodd"><path d="M152.438 54.7c0-.778.645-1.423 1.424-1.423.78 0 1.425.645 1.425 1.424 0 .78-.645 1.426-1.425 1.426s-1.424-.645-1.424-1.425"/><path d="M153.862 56.287c-.86 0-1.586-.7-1.586-1.586 0-.886.7-1.585 1.586-1.585.86 0 1.586.7 1.586 1.586 0 .86-.725 1.587-1.586 1.587zm0-2.85c-.698 0-1.263.565-1.263 1.264 0 .7.564 1.265 1.262 1.265.7 0 1.264-.565 1.264-1.264-.027-.698-.565-1.262-1.264-1.262zM76.098 58.92c.054-.133.027-.267-.054-.375-.134-.16-.35-.27-.618-.27h-.833c-.296 0-.7.216-.78.54l-2.5 8.816-2.473-8.79c-.08-.268-.322-.564-.7-.564h-.966c-.35 0-.62.296-.672.565l-2.312 8.71-2.365-8.736c-.108-.323-.484-.538-.807-.538h-1.183c-.242 0-.483.108-.618.296-.08.108-.107.242-.08.376l3.682 13.01c.08.27.322.538.67.538h1.184c.322 0 .59-.242.672-.565l2.258-8.654 2.473 8.682c.08.27.322.565.672.565h1.155c.322 0 .59-.215.672-.565l3.52-13.037zM88.033 68.383c-.08-.16-.27-.27-.457-.322l-1.156-.214c-.323-.054-.672.134-.78.403-.564 1.29-1.612 2.042-2.903 2.07-1.263-.028-2.392-.78-2.93-1.883-.43-.914-.483-1.8-.51-2.715h8.467c.188 0 .35-.08.484-.215.107-.107.16-.242.16-.376-.026-3.36-1.558-6.96-5.805-6.96-4.22 0-6.13 3.735-6.13 7.176 0 4.328 2.394 7.096 6.076 7.096 2.633 0 4.65-1.344 5.536-3.656.027-.107 0-.268-.053-.403zm-8.63-4.596c.136-1.747 1.29-3.575 3.2-3.63 2.043.055 2.984 1.83 3.037 3.63h-6.236zM101.527 65.05c0-1.8-.457-3.52-1.21-4.73-.887-1.4-2.446-2.26-4.032-2.26h-.215c-1.398 0-2.5.593-3.333 1.775v-5.483c0-.296-.323-.592-.672-.592h-1.21c-.322 0-.672.242-.672.592v17.123c0 .322.323.59.672.59h.35c.35 0 .564-.268.672-.537l.376-1.21c.887 1.264 2.204 1.99 3.656 1.99h.214c3.736 0 5.403-3.656 5.403-7.258zm-2.715.323c0 .806-.135 4.784-2.984 4.865-.94-.027-1.91-.59-2.446-1.425-.403-.618-.618-1.478-.672-2.553v-2.34c.054-1.8 1.317-3.762 3.118-3.843 2.85.162 2.984 4.436 2.984 5.296zM116.472 68.168c0-1.29-.59-2.446-1.586-3.172-.78-.564-1.747-.752-2.688-.94l-1.828-.35c-1.317-.215-2.07-.564-2.07-1.72 0-1.237 1.264-1.694 2.34-1.72 1.316.026 2.31.618 2.768 1.64.107.24.376.402.618.402.054 0 .08 0 .134-.027l1.13-.24c.187-.054.35-.162.456-.323.08-.134.08-.27.054-.403-.7-2.043-2.473-3.118-5.16-3.118-2.42 0-5 1.075-5 4.085 0 2.07 1.29 3.362 3.843 3.872l2.043.403c1.13.215 2.285.592 2.285 1.8 0 1.776-2.07 1.964-2.714 1.99-1.398-.026-3.01-.67-3.387-1.99-.082-.294-.458-.51-.78-.43l-1.183.243c-.188.027-.35.162-.43.323-.08.135-.108.27-.054.404.618 2.204 2.742 3.548 5.7 3.575h.052c2.635 0 5.457-1.13 5.457-4.302zM129.32 68.41c-.08-.16-.268-.27-.456-.322l-1.183-.215c-.268-.054-.644.107-.778.403-.565 1.29-1.613 2.043-2.904 2.07-1.263-.027-2.392-.78-2.93-1.882-.43-.914-.483-1.8-.51-2.715h8.467c.188 0 .35-.082.484-.216.106-.108.16-.242.16-.376-.027-3.36-1.56-6.962-5.806-6.962-4.22 0-6.13 3.736-6.13 7.177 0 4.327 2.394 7.096 6.076 7.096 2.635 0 4.65-1.345 5.538-3.657.08-.134.053-.268-.027-.403zm-8.628-4.596c.135-1.748 1.29-3.575 3.2-3.63 2.042.055 2.983 1.83 3.036 3.63h-6.236zM134.052 65.507c0-1.048.107-1.828.59-2.77.7-1.316 1.72-1.96 3.04-1.988.32 0 .617-.296.617-.62V58.95c0-.295-.27-.564-.62-.618-.16-.027-.322-.027-.483-.027-1.425 0-2.58.78-3.387 2.258v-1.29c0-.322-.323-.59-.672-.59h-1.05c-.348 0-.644.268-.644.59v12.554c0 .323.296.59.645.59h1.236c.322 0 .672-.24.672-.59l.054-6.317zM151.336 58.76c.053-.134.027-.27-.054-.376-.135-.188-.376-.296-.618-.296h-.968c-.296 0-.7.215-.78.538l-3.145 9.92-3.224-9.92c-.108-.323-.484-.538-.807-.538h-1.398c-.27 0-.51.108-.62.296-.08.107-.106.242-.052.376l4.408 13.09c.08.27.323.565.672.565h1.693c.296 0 .565-.215.672-.564l4.22-13.09zM155.233 58.626c0-.323-.322-.618-.7-.618h-1.343c-.376 0-.698.295-.698.618v13.332c0 .162.08.323.215.43.134.108.295.162.457.162h1.344c.376 0 .698-.296.698-.62V58.627h.027zM167.706 67.71c0-.133-.027-.268-.135-.402-.133-.134-.32-.242-.563-.242h-1.13c-.322 0-.564.188-.698.51-.404 1.748-1.345 2.662-2.743 2.716-2.715-.08-2.93-3.87-2.93-5.054 0-2.31.807-4.81 3.038-4.892 1.344.054 2.338 1.022 2.634 2.58.053.323.295.565.644.62h1.183c.35-.028.645-.297.645-.646-.43-2.85-2.392-4.704-5.054-4.704h-.188c-3.844 0-5.564 3.602-5.564 7.15 0 3.252 1.452 7.07 5.537 7.07h.19c2.633.026 4.568-1.775 5.133-4.705zM180.42 68.41c-.08-.16-.242-.27-.457-.322l-1.156-.215c-.27-.054-.645.107-.78.403-.564 1.29-1.612 2.043-2.902 2.07-1.264-.027-2.393-.78-2.93-1.882-.43-.914-.484-1.8-.51-2.715h8.466c.19 0 .35-.082.485-.216.108-.108.16-.242.16-.376-.026-3.36-1.558-6.962-5.805-6.962-4.22 0-6.128 3.736-6.128 7.177 0 4.327 2.392 7.096 6.074 7.096 2.635 0 4.65-1.345 5.538-3.657.027-.134.027-.268-.054-.403zm-8.628-4.596c.134-1.748 1.29-3.575 3.198-3.63 2.043.055 2.984 1.83 3.038 3.63h-6.236zM193 68.168c0-1.29-.59-2.446-1.586-3.172-.78-.564-1.747-.752-2.688-.94l-1.828-.35c-1.317-.215-2.07-.564-2.07-1.72 0-1.586 1.963-1.72 2.34-1.72 1.316.026 2.31.618 2.768 1.64.107.24.376.402.618.402.054 0 .08 0 .134-.027l1.13-.24c.187-.054.35-.162.456-.323.08-.134.08-.27.054-.403-.7-2.043-2.473-3.118-5.16-3.118-2.42 0-5 1.075-5 4.085 0 2.07 1.29 3.362 3.843 3.872l2.044.403c1.13.215 2.285.592 2.285 1.8 0 1.776-2.07 1.964-2.716 1.99-1.317-.026-2.984-.564-3.387-1.99-.08-.294-.457-.51-.78-.43l-1.182.243c-.188.027-.35.162-.43.323-.08.135-.108.27-.054.404.62 2.204 2.743 3.548 5.7 3.575h.053c2.635 0 5.457-1.13 5.457-4.302z"/><g><path d="M136.525 32.122v-3.038c0-.457.35-.78.78-.78h13.547c.43 0 .78.323.78.754v2.607c0 .43-.377.994-1.022 1.908L143.594 43.6c2.608-.054 5.376.322 7.742 1.666.537.296.672.753.725 1.183v3.225c0 .457-.482.967-.993.7-4.167-2.18-9.704-2.42-14.327.025-.484.242-.968-.242-.968-.698v-3.065c0-.484 0-1.344.51-2.07l8.145-11.666h-7.096c-.456-.025-.805-.348-.805-.778M87.065 51.02h-4.14c-.403-.028-.698-.324-.725-.7V29.138c0-.43.35-.752.806-.752h3.844c.403.026.726.322.753.698v2.77h.08c.995-2.69 2.876-3.925 5.43-3.925 2.58 0 4.193 1.235 5.35 3.923.994-2.688 3.28-3.924 5.698-3.924 1.72 0 3.63.697 4.786 2.31 1.317 1.774 1.048 4.355 1.048 6.64v13.36c0 .43-.35.752-.807.752h-4.112c-.403-.027-.753-.35-.753-.753V39.002c0-.887.08-3.118-.107-3.978-.296-1.425-1.237-1.828-2.42-1.828-.994 0-2.042.672-2.473 1.747-.43 1.075-.376 2.85-.376 4.06v11.235c0 .43-.35.752-.806.752h-4.113c-.403-.027-.753-.35-.753-.753V39.002c0-2.365.377-5.833-2.526-5.833-2.957 0-2.85 3.387-2.85 5.833V50.24c-.053.43-.403.78-.833.78M163.324 27.93c6.13 0 9.435 5.267 9.435 11.933 0 6.452-3.657 11.586-9.436 11.586-6.02 0-9.273-5.27-9.273-11.802-.026-6.585 3.28-11.72 9.274-11.72zm.027 4.326c-3.036 0-3.225 4.14-3.225 6.72s-.026 8.118 3.2 8.118c3.198 0 3.36-4.462 3.36-7.177 0-1.774-.08-3.924-.62-5.618-.483-1.48-1.397-2.044-2.714-2.044zM180.69 51.02h-4.114c-.403-.028-.752-.35-.752-.754V29.084c.026-.376.376-.698.78-.698h3.816c.35.026.645.268.726.59v3.253h.08c1.156-2.904 2.77-4.275 5.618-4.275 1.855 0 3.656.672 4.812 2.5 1.075 1.694 1.075 4.543 1.075 6.586v13.334c-.053.376-.375.672-.778.672h-4.14c-.376-.027-.7-.296-.726-.672V38.87c0-2.313.27-5.7-2.58-5.7-.995 0-1.936.672-2.392 1.694-.592 1.29-.646 2.58-.646 4.005v11.396c.027.403-.35.753-.78.753M125.72 40.885c0 1.613.026 2.957-.78 4.38-.646 1.157-1.694 1.883-2.85 1.883-1.586 0-2.5-1.21-2.5-2.984 0-3.52 3.145-4.14 6.13-4.14v.86zm4.165 10.08c-.27.242-.672.27-.967.107-1.37-1.13-1.613-1.666-2.366-2.74-2.258 2.31-3.87 3.01-6.8 3.01-3.468 0-6.183-2.15-6.183-6.425 0-3.36 1.8-5.618 4.407-6.747 2.23-.995 5.376-1.156 7.77-1.425v-.537c0-.995.08-2.15-.512-2.984-.51-.753-1.452-1.075-2.312-1.075-1.586 0-2.983.805-3.306 2.472-.08.376-.35.752-.726.752l-4.004-.43c-.35-.08-.726-.35-.618-.86.914-4.865 5.295-6.317 9.22-6.317 2.016 0 4.623.538 6.21 2.043 2.015 1.882 1.8 4.382 1.8 7.097v6.424c0 1.936.806 2.796 1.56 3.818.268.376.322.833-.028 1.102-.833.672-2.31 1.99-3.145 2.715zM71.636 40.885c0 1.613.027 2.957-.78 4.38-.645 1.157-1.693 1.883-2.85 1.883-1.585 0-2.5-1.21-2.5-2.984 0-3.52 3.146-4.14 6.13-4.14v.86zm4.166 10.08c-.27.242-.672.27-.967.107-1.37-1.13-1.613-1.666-2.366-2.74-2.26 2.31-3.872 3.01-6.802 3.01-3.467 0-6.182-2.15-6.182-6.425 0-3.36 1.828-5.618 4.408-6.747 2.23-.995 5.376-1.156 7.77-1.425v-.537c0-.995.08-2.15-.512-2.984-.51-.753-1.478-1.075-2.312-1.075-1.586 0-2.983.805-3.306 2.472-.08.376-.35.752-.726.752l-4.005-.43c-.35-.08-.726-.35-.618-.86.914-4.865 5.295-6.317 9.22-6.317 2.016 0 4.623.538 6.21 2.043 2.015 1.882 1.8 4.382 1.8 7.097v6.424c0 1.936.806 2.796 1.56 3.818.268.376.322.833 0 1.102-.86.672-2.34 1.99-3.173 2.715z"/></g><g><path d="M14.112 52.873v16.182l11.424 3.87V56.53l-11.424-3.657zM28.224 56.53l11.397-3.657v16.21l-11.396 3.843V56.53zM37.444 51.046l-10.564-3.44-10.537 3.44 10.564 3.413 10.537-3.414"/></g><g><path d="M0 29.11v16.21l11.45 3.844V32.767L0 29.11zM14.112 32.767L25.51 29.11v16.21L14.11 49.164V32.767zM23.332 27.283l-10.537-3.44-10.564 3.44 10.565 3.414 10.537-3.414"/><g><path d="M28.197 29.11v16.21l11.45 3.844V32.767l-11.45-3.656zM42.336 32.767l11.398-3.656v16.21l-11.398 3.844V32.767zM51.53 27.283l-10.538-3.44-10.564 3.44 10.59 3.414 10.51-3.414"/></g></g><g><path d="M42.686 5.457v16.208l11.45 3.844V9.11l-11.45-3.655zM56.798 9.14l11.424-3.683v16.208L56.798 25.51V9.14zM66.018 3.63L55.48.187l-10.563 3.44L55.48 7.07 66.02 3.63"/></g><g><path d="M70.695 5.457v16.208l11.45 3.844V9.11l-11.45-3.655zM84.807 9.14L96.23 5.456v16.208L84.808 25.51V9.14zM94.027 3.63L83.49.187l-10.564 3.44L83.49 7.07l10.537-3.44"/></g></g></svg>