<svg width="104" height="131" viewBox="0 0 104 131" xmlns="http://www.w3.org/2000/svg"><title>Slice 1</title><g fill="#D71B32" fill-rule="evenodd"><path d="M102.612 51.05c0 28.09-22.77 50.862-50.864 50.862-28.088 0-50.863-22.77-50.863-50.86C.885 22.958 23.66.186 51.748.186c28.093 0 50.864 22.773 50.864 50.864zM51.748 17.12c-18.74 0-33.934 15.192-33.934 33.933 0 18.743 15.192 33.936 33.934 33.936 18.742 0 33.936-15.192 33.936-33.935 0-18.74-15.194-33.932-33.936-33.932z"/><path d="M51.748 33.617c-9.625 0-17.432 7.805-17.432 17.434 0 9.63 7.806 17.436 17.432 17.436 9.63 0 17.435-7.805 17.435-17.435 0-9.628-7.804-17.433-17.435-17.433z"/><g><path d="M5.924 113.896H.334v-3.452h15.283v3.452H10.03v15.207H5.923v-15.207zM22.962 115.046h.048l2.354 6.842H20.53l2.432-6.842zm-9.124 14.057h4.158l1.465-4.16h6.976l1.407 4.16h4.263l-6.977-18.658H20.92l-7.084 18.658zM37.828 113.632h4.492c1.826 0 2.82.78 2.82 2.588 0 1.876-.994 2.658-2.82 2.658h-4.492v-5.246zm-4.106 15.47h4.106v-7.292h4.102c2.06 0 2.82.857 3.11 2.813.204 1.49.152 3.305.65 4.48h4.098c-.725-1.057-.698-3.252-.774-4.424-.134-1.882-.71-3.836-2.724-4.365v-.05c2.068-.834 2.952-2.484 2.952-4.676 0-2.816-2.113-5.145-5.456-5.145H33.722v18.658zM65.547 126.973c-1.43 1.868-3.32 2.572-5.13 2.572-5.767 0-9.16-4.313-9.16-9.702 0-5.537 3.393-9.847 9.16-9.847 3.828 0 7.424 2.353 7.872 6.584h-3.923c-.464-2.062-2.006-3.13-3.95-3.13-3.672 0-5.06 3.13-5.06 6.394 0 3.114 1.388 6.246 5.06 6.246 2.667 0 4.216-1.438 4.446-4.016h-4.13v-3.065h7.85v10.093h-2.617l-.42-2.13zM71.383 110.445H85.33v3.452h-9.85v3.99h9.037v3.183H75.48v4.575h10.05v3.458H71.383v-18.658zM92.95 113.896h-5.582v-3.452h15.276v3.452h-5.587v15.207H92.95v-15.207z"/><g><path d="M99.047 127.054c0-1.175.94-2.038 2.05-2.038 1.1 0 2.038.863 2.038 2.038 0 1.184-.94 2.05-2.038 2.05-1.11 0-2.05-.866-2.05-2.05zm2.05 1.687c.935 0 1.676-.713 1.676-1.685 0-.955-.74-1.676-1.676-1.676-.95 0-1.688.72-1.688 1.675 0 .972.738 1.686 1.687 1.686z"/><path d="M100.237 128.19h.478v-.85h.48c.24 0 .33.1.36.33.026.17.023.383.078.52h.48c-.088-.122-.084-.38-.094-.517-.018-.22-.08-.447-.317-.508v-.005c.24-.098.344-.29.344-.546 0-.33-.246-.6-.638-.6h-1.175v2.175h.002zm.478-1.803h.524c.212 0 .33.09.33.3 0 .22-.118.31-.33.31h-.525v-.61z"/></g></g></g></svg>