<svg width="161" height="49" viewBox="0 0 161 49" xmlns="http://www.w3.org/2000/svg"><title>Slice 1</title><g fill="#E12529" fill-rule="evenodd"><path d="M112.792 9.423h-8.52c-.237 0-.43.193-.43.43v4.928c0 .237.193.43.43.43h8.52c.236 0 .43-.193.43-.43V9.853c0-.236-.194-.43-.43-.43zM112.633 16.767h-16.34c-.237 0-.48.187-.54.415l-2.097 8.03-.108.416-2.552-8.53c-.067-.226-.315-.41-.55-.41h-6.368c-.236 0-.484.184-.55.41l-2.39 8.04-.123.41-.106-.416-1.013-3.975-1.01-3.974c-.06-.23-.3-.416-.536-.416H65.505V9.852c0-.236-.302-.477-.565-.384l-8.067 2.518c-.242.08-.43.193-.43.43v4.35H54.32c-.236 0-.43.194-.43.43v6.127c0 .235.194.43.43.43h2.126v7.502c0 5.31 2.874 7.783 8.222 7.783 2.195 0 4.35-.48 5.787-1.237v-6.428c0-.327-.272-.42-.453-.342-.858.37-1.545.465-2.3.465-1.438 0-2.196-.6-2.196-2.235v-5.508h4.6c.236 0 .43-.193.43-.43V18.15l6.047 20.158c.07.226.317.41.553.41h6.686c.235 0 .487-.183.56-.407l2.86-8.93 1.458 4.67 1.33 4.26c.07.225.32.41.556.41h6.725c.235 0 .484-.186.553-.41L104 18.09V38.3c0 .234.194.428.43.428h8.203c.236 0 .43-.193.43-.43V17.197c0-.236-.194-.43-.43-.43zM123.428 9.423h-8.203c-.236 0-.428.193-.428.43v28.446c0 .234.193.428.428.428h8.203c.236 0 .43-.193.43-.43V9.853c0-.236-.194-.43-.43-.43zM134.373 9.423h-8.52c-.237 0-.43.193-.43.43v4.928c0 .237.193.43.43.43h8.52c.236 0 .43-.193.43-.43V9.853c0-.236-.194-.43-.43-.43zM134.214 16.767h-8.203c-.234 0-.428.193-.428.43v21.102c0 .234.193.428.43.428h8.202c.236 0 .43-.193.43-.43V17.197c0-.236-.194-.43-.43-.43zM147.787 16.248c-7.185 0-12.294 5.27-12.294 11.415v.08c0 6.146 5.07 11.335 12.214 11.335 7.184 0 12.293-5.268 12.293-11.415v-.08c0-6.146-5.07-11.335-12.213-11.335zm3.512 11.495c0 2.075-1.478 3.792-3.513 3.792-1.996 0-3.593-1.717-3.593-3.872v-.08c0-2.075 1.477-3.792 3.513-3.792 1.996 0 3.592 1.718 3.592 3.873v.08z"/><g><path d="M24.074 0C10.778 0 0 10.778 0 24.074 0 37.37 10.778 48.147 24.074 48.147c13.295 0 24.073-10.778 24.073-24.073C48.147 10.778 37.37 0 24.074 0zm0 41.803c-9.792 0-17.73-7.938-17.73-17.73 0-9.79 7.938-17.73 17.73-17.73 9.79 0 17.73 7.94 17.73 17.73 0 9.792-7.94 17.73-17.73 17.73z"/><ellipse cx="30.069" cy="18.078" rx="5.006" ry="5.006"/><ellipse cx="30.069" cy="30.069" rx="5.006" ry="5.006"/><ellipse cx="18.078" cy="30.069" rx="5.006" ry="5.006"/><ellipse cx="18.078" cy="18.078" rx="5.006" ry="5.006"/></g></g></svg>